<svg width="53" height="24" viewBox="0 0 53 24" fill="none" xmlns="http://www.w3.org/2000/svg">
<path d="M8.89218 5.42C8.89442 5.39678 8.89999 5.36673 8.89999 5.34146C8.89999 5.15298 8.76063 5 8.5889 5C8.51579 5 8.46441 5.03005 8.44452 5.03859C7.3883 5.49137 3.29999 9.95669 3.29999 13.878C3.29999 16.7067 5.38941 19 7.96665 19C10.8006 19 12.6333 16.38 12.6333 13.878C12.6333 9.71663 8.16486 8.94834 8.89218 5.42Z" fill="#F46B4D"/>
<path d="M31.3281 7.04688V8.12695H26.5293V17H25.2168V7.04688H31.3281ZM36.4961 12.3447H33.9736L33.96 11.2852H36.25C36.6283 11.2852 36.9587 11.2214 37.2412 11.0938C37.5238 10.9661 37.7425 10.7839 37.8975 10.5469C38.057 10.3053 38.1367 10.0182 38.1367 9.68555C38.1367 9.32096 38.0661 9.02474 37.9248 8.79688C37.7881 8.56445 37.5762 8.39583 37.2891 8.29102C37.0065 8.18164 36.6465 8.12695 36.209 8.12695H34.2676V17H32.9482V7.04688H36.209C36.7194 7.04688 37.1751 7.09928 37.5762 7.2041C37.9772 7.30436 38.3167 7.46387 38.5947 7.68262C38.8773 7.89681 39.0915 8.17025 39.2373 8.50293C39.3831 8.83561 39.4561 9.23438 39.4561 9.69922C39.4561 10.1094 39.3512 10.4808 39.1416 10.8135C38.932 11.1416 38.6403 11.4105 38.2666 11.6201C37.8975 11.8298 37.4645 11.9642 36.9678 12.0234L36.4961 12.3447ZM36.4346 17H33.4541L34.1992 15.9268H36.4346C36.8538 15.9268 37.2093 15.8538 37.501 15.708C37.7972 15.5622 38.0228 15.3571 38.1777 15.0928C38.3327 14.8239 38.4102 14.5072 38.4102 14.1426C38.4102 13.7734 38.3441 13.4544 38.2119 13.1855C38.0798 12.9167 37.8724 12.7093 37.5898 12.5635C37.3073 12.4176 36.9427 12.3447 36.4961 12.3447H34.6162L34.6299 11.2852H37.2002L37.4805 11.668C37.959 11.709 38.3646 11.8457 38.6973 12.0781C39.0299 12.306 39.2829 12.5977 39.4561 12.9531C39.6338 13.3086 39.7227 13.7005 39.7227 14.1289C39.7227 14.7487 39.5859 15.2728 39.3125 15.7012C39.0436 16.125 38.6631 16.4486 38.1709 16.6719C37.6787 16.8906 37.0999 17 36.4346 17ZM47.6797 13.835H48.9922C48.9238 14.4639 48.7438 15.0267 48.4521 15.5234C48.1605 16.0202 47.748 16.4144 47.2148 16.7061C46.6816 16.9932 46.0163 17.1367 45.2188 17.1367C44.6354 17.1367 44.1045 17.0273 43.626 16.8086C43.152 16.5898 42.7441 16.2799 42.4023 15.8789C42.0605 15.4733 41.7962 14.988 41.6094 14.4229C41.4271 13.8532 41.3359 13.2197 41.3359 12.5225V11.5312C41.3359 10.834 41.4271 10.2028 41.6094 9.6377C41.7962 9.06803 42.0628 8.5804 42.4092 8.1748C42.7601 7.76921 43.1816 7.45703 43.6738 7.23828C44.166 7.01953 44.7197 6.91016 45.335 6.91016C46.0869 6.91016 46.7227 7.05143 47.2422 7.33398C47.7617 7.61654 48.165 8.00846 48.4521 8.50977C48.7438 9.00651 48.9238 9.58301 48.9922 10.2393H47.6797C47.6159 9.77441 47.4974 9.37565 47.3242 9.04297C47.151 8.70573 46.9049 8.44596 46.5859 8.26367C46.2669 8.08138 45.8499 7.99023 45.335 7.99023C44.8929 7.99023 44.5033 8.07454 44.166 8.24316C43.8333 8.41178 43.5531 8.65104 43.3252 8.96094C43.1019 9.27083 42.9333 9.64225 42.8193 10.0752C42.7054 10.5081 42.6484 10.9889 42.6484 11.5176V12.5225C42.6484 13.0101 42.6986 13.4681 42.7988 13.8965C42.9036 14.3249 43.0609 14.7008 43.2705 15.0244C43.4801 15.348 43.7467 15.6032 44.0703 15.79C44.3939 15.9723 44.7767 16.0635 45.2188 16.0635C45.7793 16.0635 46.2259 15.9746 46.5586 15.7969C46.8913 15.6191 47.1419 15.3639 47.3105 15.0312C47.4837 14.6986 47.6068 14.2998 47.6797 13.835Z" fill="#1D2432"/>
</svg>
